<svg height='300px' width='300px'  fill="#000000" xmlns:dc="http://purl.org/dc/elements/1.1/" xmlns:cc="http://creativecommons.org/ns#" xmlns:rdf="http://www.w3.org/1999/02/22-rdf-syntax-ns#" xmlns:svg="http://www.w3.org/2000/svg" xmlns="http://www.w3.org/2000/svg" xmlns:sodipodi="http://sodipodi.sourceforge.net/DTD/sodipodi-0.dtd" xmlns:inkscape="http://www.inkscape.org/namespaces/inkscape" version="1.1" x="0px" y="0px" viewBox="0 0 100 100"><g transform="translate(0,-952.36218)"><path style="font-size:medium;font-style:normal;font-variant:normal;font-weight:normal;font-stretch:normal;text-indent:0;text-align:start;text-decoration:none;line-height:normal;letter-spacing:normal;word-spacing:normal;text-transform:none;direction:ltr;block-progression:tb;writing-mode:lr-tb;text-anchor:start;baseline-shift:baseline;opacity:1;color:#000000;fill:#000000;fill-opacity:1;stroke:none;stroke-width:4;marker:none;visibility:visible;display:inline;overflow:visible;enable-background:accumulate;font-family:Sans;-inkscape-font-specification:Sans" d="M 31.78125 11.96875 A 2.0002 2.0002 0 0 0 30 14 L 30 86 A 2.0002 2.0002 0 1 0 34 86 L 34 14 A 2.0002 2.0002 0 0 0 31.78125 11.96875 z M 67.78125 11.96875 A 2.0002 2.0002 0 0 0 66 14 L 66 86 A 2.0002 2.0002 0 1 0 70 86 L 70 14 A 2.0002 2.0002 0 0 0 67.78125 11.96875 z M 19.78125 26.96875 A 2.0002 2.0002 0 0 0 18 29 L 18 71 A 2.0002 2.0002 0 1 0 22 71 L 22 29 A 2.0002 2.0002 0 0 0 19.78125 26.96875 z M 43.78125 26.96875 A 2.0002 2.0002 0 0 0 42 29 L 42 71 A 2.0002 2.0002 0 1 0 46 71 L 46 29 A 2.0002 2.0002 0 0 0 43.78125 26.96875 z M 79.78125 26.96875 A 2.0002 2.0002 0 0 0 78 29 L 78 71 A 2.0002 2.0002 0 1 0 82 71 L 82 29 A 2.0002 2.0002 0 0 0 79.78125 26.96875 z M 7.78125 38.96875 A 2.0002 2.0002 0 0 0 6 41 L 6 59 A 2.0002 2.0002 0 1 0 10 59 L 10 41 A 2.0002 2.0002 0 0 0 7.78125 38.96875 z M 55.78125 38.96875 A 2.0002 2.0002 0 0 0 54 41 L 54 59 A 2.0002 2.0002 0 1 0 58 59 L 58 41 A 2.0002 2.0002 0 0 0 55.78125 38.96875 z M 91.78125 38.96875 A 2.0002 2.0002 0 0 0 90 41 L 90 59 A 2.0002 2.0002 0 1 0 94 59 L 94 41 A 2.0002 2.0002 0 0 0 91.78125 38.96875 z " transform="translate(0,952.36218)"></path></g></svg>